<svg xmlns="http://www.w3.org/2000/svg" version="1.1" xmlns:xlink="http://www.w3.org/1999/xlink" xmlns:svgjs="http://svgjs.dev/svgjs" width="1500" height="496" viewBox="0 0 1500 496"><g transform="matrix(1,0,0,1,-0.9090909090909918,-0.14303652651730658)"><svg viewBox="0 0 396 131" data-background-color="#ffffff" preserveAspectRatio="xMidYMid meet" height="496" width="1500" xmlns="http://www.w3.org/2000/svg" xmlns:xlink="http://www.w3.org/1999/xlink"><g id="tight-bounds" transform="matrix(1,0,0,1,0.2400000000000091,0.0377777922858229)"><svg viewBox="0 0 395.52 130.92444441542835" height="130.92444441542835" width="395.52"><g><svg viewBox="0 0 663.2045051756049 219.53297272938198" height="130.92444441542835" width="395.52"><g transform="matrix(1,0,0,1,267.68450517560495,0)"><svg viewBox="0 0 395.52 219.53297272938198" height="219.53297272938198" width="395.52"><g id="textblocktransform"><svg viewBox="0 0 395.52 219.53297272938198" height="219.53297272938198" width="395.52" id="textblock"><g><rect width="89.07912670824071" height="10.677938789328769" y="177.6066743506959" fill="#d1d7de" data-fill-palette-color="tertiary"></rect><rect width="89.07912670824071" height="10.677938789328769" y="177.6066743506959" x="306.44087329175926" fill="#d1d7de" data-fill-palette-color="tertiary"></rect></g><g><svg viewBox="0 0 395.52 118.40559541754598" height="118.40559541754598" width="395.52"><g transform="matrix(1,0,0,1,0,0)"><svg width="395.52" viewBox="0.85 -37.55 165.84 49.65" height="118.40559541754598" data-palette-color="#d1d7de"><path d="M14.5-2.95L14.5-34.5 5.9-34.2 4.15-23.75 0.85-23.75 1.7-37.15 32.85-37.15 33.45-23.75 30.3-23.75 28.65-34.2 20-34.5 20-2.95 27.1-2.45 27.1 0 8 0 8-2.45 14.5-2.95ZM60.95 0.55Q58.35 0.55 56.3 0.1 54.25-0.35 51.8-1.1L51.8-1.1Q50.3-1.65 49.55-1.7L49.55-1.7 49.95-10.75 53.15-10.75 54-4.25Q54.85-3.45 56.77-2.83 58.7-2.2 61-2.2L61-2.2Q64.8-2.2 66.77-3.9 68.75-5.6 68.75-8.6L68.75-8.6Q68.75-10.55 67.67-11.95 66.6-13.35 64.82-14.35 63.05-15.35 59.95-16.7L59.95-16.7Q57.15-17.95 55.07-19.25 53-20.55 51.47-22.73 49.95-24.9 49.95-27.95L49.95-27.95Q49.95-30.7 51.42-32.88 52.9-35.05 55.67-36.3 58.45-37.55 62.15-37.55L62.15-37.55Q64.45-37.55 66.22-37.2 68-36.85 70.25-36.25L70.25-36.25Q71.25-35.9 71.95-35.8L71.95-35.8 71.65-27.4 68.6-27.4 67.6-33.55Q67.1-34.05 65.52-34.5 63.95-34.95 62.1-34.95L62.1-34.95Q58.65-34.95 56.87-33.5 55.1-32.05 55.1-29.3L55.1-29.3Q55.1-27.3 56.17-25.95 57.25-24.6 58.85-23.65 60.45-22.7 63.95-21.05L63.95-21.05Q67.2-19.5 69.25-18.25 71.3-17 72.77-14.98 74.25-12.95 74.25-10.15L74.25-10.15Q74.25-7.5 72.77-5.05 71.3-2.6 68.27-1.03 65.25 0.55 60.95 0.55L60.95 0.55ZM81.39-2.9L81.39-23.9 77.79-24.8 77.79-27.5 84.94-28.4 85.09-28.4 86.14-27.5 86.14-25.4 86.09-24.2Q87.89-25.8 90.84-27.1 93.79-28.4 96.49-28.4L96.49-28.4Q99.64-28.4 101.37-27.2 103.09-26 103.79-23.53 104.49-21.05 104.49-16.85L104.49-16.85 104.49-2.85 107.99-2.5 107.99 0 96.14 0 96.14-2.45 99.24-2.85 99.24-16.9Q99.24-19.85 98.84-21.53 98.44-23.2 97.34-24.03 96.24-24.85 94.14-24.85L94.14-24.85Q92.34-24.85 90.29-23.95 88.24-23.05 86.64-21.85L86.64-21.85 86.64-2.9 90.04-2.45 90.04 0 78.24 0 78.24-2.45 81.39-2.9ZM111.59-7.5Q111.59-12.2 116.29-14.43 120.99-16.65 128.19-16.8L128.19-16.8 128.19-18.2Q128.19-20.55 127.69-21.9 127.19-23.25 125.97-23.88 124.74-24.5 122.49-24.5L122.49-24.5Q119.94-24.5 117.92-23.78 115.89-23.05 113.89-22L113.89-22 112.64-24.6Q113.29-25.15 115.04-26.05 116.79-26.95 119.09-27.65 121.39-28.35 123.69-28.35L123.69-28.35Q127.24-28.35 129.32-27.38 131.39-26.4 132.29-24.25 133.19-22.1 133.19-18.5L133.19-18.5 133.19-2.45 136.14-2.45 136.14-0.25Q135.14 0 133.62 0.25 132.09 0.5 130.94 0.5L130.94 0.5Q129.54 0.5 129.04 0.08 128.54-0.35 128.54-1.8L128.54-1.8 128.54-3.45Q127.04-1.95 124.87-0.7 122.69 0.55 119.94 0.55L119.94 0.55Q116.34 0.55 113.97-1.53 111.59-3.6 111.59-7.5L111.59-7.5ZM122.09-2.85Q123.39-2.85 125.09-3.65 126.79-4.45 128.19-5.55L128.19-5.55 128.19-14.15Q122.74-14.15 119.97-12.48 117.19-10.8 117.19-8.1L117.19-8.1Q117.19-5.4 118.52-4.13 119.84-2.85 122.09-2.85L122.09-2.85ZM166.69-14.85Q166.69-10.6 164.94-7.08 163.19-3.55 159.94-1.5 156.69 0.55 152.34 0.55L152.34 0.55Q151.14 0.55 149.74 0.35 148.34 0.15 147.49-0.15L147.49-0.15 147.64 4.05 147.64 9.1 152.84 9.65 152.84 12.1 138.89 12.1 138.89 9.65 142.49 9.1 142.49-23.9 138.84-24.8 138.84-27.5 145.94-28.4 146.04-28.4 147.09-27.5 147.09-24.55Q148.59-26.2 150.81-27.35 153.04-28.5 155.79-28.5L155.79-28.5Q158.74-28.5 161.21-27.05 163.69-25.6 165.19-22.55 166.69-19.5 166.69-14.85L166.69-14.85ZM153.74-25Q151.84-25 150.19-24.2 148.54-23.4 147.64-22.45L147.64-22.45 147.64-3.6Q147.99-3 149.41-2.53 150.84-2.05 152.54-2.05L152.54-2.05Q156.39-2.05 158.76-5.1 161.14-8.15 161.14-14.3L161.14-14.3Q161.14-19.7 159.06-22.35 156.99-25 153.74-25L153.74-25Z" opacity="1" transform="matrix(1,0,0,1,0,0)" fill="#d1d7de" class="wordmark-text-0" data-fill-palette-color="primary" id="text-0"></path></svg></g></svg></g><g transform="matrix(1,0,0,1,89.07912670824071,146.35831476133856)"><svg viewBox="0 0 217.36174658351857 73.17465796804342" height="73.17465796804342" width="217.36174658351857"><g transform="matrix(1,0,0,1,8,0)"><svg width="201.36174658351857" viewBox="2.08 -36.89 102.84 37.38" height="73.17465796804342" data-palette-color="#d1d7de"><path d="M2.08-31.03L2.08-34.69 29.42-34.69 29.42-31.03 17.82-31.03 17.82 0 13.67 0 13.67-31.03 2.08-31.03ZM41.92-24.58L41.92-24.58Q44.6-24.58 46.47-23.96 48.34-23.34 49.35-22.14 50.36-20.95 50.8-19.48 51.24-18.02 51.24-16.11L51.24-16.11 51.24 0 48.41 0 47.48-2.2Q44.53 0.49 40.7 0.49L40.7 0.49Q37.28 0.49 34.91-1.57 32.54-3.64 32.54-6.4L32.54-6.4Q32.54-7.86 33.08-9.03 33.62-10.21 34.63-10.99 35.64-11.77 36.94-12.32 38.23-12.87 39.95-13.16 41.67-13.45 43.41-13.57 45.14-13.7 47.21-13.7L47.21-13.7 47.21-15.6Q47.21-16.43 47.15-17.04 47.09-17.65 46.75-18.51 46.41-19.36 45.82-19.91 45.24-20.46 44.06-20.86 42.89-21.26 41.28-21.26L41.28-21.26Q38.79-21.26 34.84-20.17L34.84-20.17 34.08-23.1Q38.08-24.58 41.92-24.58ZM47.21-5.13L47.21-10.67 45.73-10.67Q44.33-10.67 43.31-10.62 42.28-10.57 40.9-10.34 39.52-10.11 38.64-9.69 37.77-9.28 37.14-8.48 36.52-7.69 36.52-6.59L36.52-6.59Q36.52-5.05 38.07-3.86 39.62-2.66 41.77-2.66L41.77-2.66Q44.92-2.66 47.21-5.13L47.21-5.13ZM70.04-24.58L70.04-24.58Q70.55-24.58 71-24.57 71.45-24.56 71.88-24.51 72.31-24.46 72.61-24.44 72.92-24.41 73.32-24.34 73.73-24.27 73.91-24.23 74.09-24.19 74.52-24.08 74.95-23.97 75.04-23.95 75.14-23.93 75.62-23.78 76.09-23.63 76.17-23.61L76.17-23.61 75.14-20.56Q71.87-21.46 69.38-21.46L69.38-21.46Q67.94-21.46 66.83-21.17 65.72-20.87 65.12-20.46 64.52-20.04 64.14-19.49 63.76-18.95 63.65-18.53 63.54-18.12 63.54-17.72L63.54-17.72Q63.54-16.72 64.58-15.94 65.62-15.16 67.17-14.67 68.72-14.18 70.53-13.51 72.33-12.84 73.88-12.1 75.43-11.35 76.47-10.01 77.51-8.67 77.51-6.91L77.51-6.91Q77.51-5.91 77.25-4.97 77-4.03 76.28-3 75.56-1.98 74.42-1.23 73.29-0.49 71.38 0 69.48 0.49 67.01 0.49L67.01 0.49Q63.28 0.49 58.81-1.34L58.81-1.34 59.93-4.37Q62.45-3.44 64.05-3.05 65.64-2.66 67.18-2.66L67.18-2.66Q73.14-2.66 73.14-6.45L73.14-6.45Q73.14-7.28 72.55-7.91 71.97-8.54 70.99-8.95 70.01-9.35 68.78-9.78 67.55-10.21 66.27-10.57 64.99-10.94 63.75-11.54 62.52-12.13 61.54-12.85 60.57-13.57 59.98-14.72 59.39-15.87 59.39-17.31L59.39-17.31Q59.39-18.19 59.68-19.1 59.96-20.02 60.72-21.03 61.49-22.05 62.64-22.81 63.79-23.58 65.71-24.08 67.62-24.58 70.04-24.58ZM84.83 0L84.83-36.89 88.84-36.89 88.84 0 84.83 0ZM89.23-13.33L99.87-24.61 104.29-24.61 93.79-13.75 104.92 0 100.11 0 89.23-13.33Z" opacity="1" transform="matrix(1,0,0,1,0,0)" fill="#d1d7de" class="slogan-text-1" data-fill-palette-color="secondary" id="text-1"></path></svg></g></svg></g></svg></g></svg></g><g transform="matrix(1,0,0,1,0,3.876953120681108)"><svg viewBox="0 0 211.77906648801977 211.77906648801977" height="211.77906648801977" width="211.77906648801977"><g><svg></svg></g><g id="icon-0"><svg viewBox="0 0 211.77906648801977 211.77906648801977" height="211.77906648801977" width="211.77906648801977"><g><path d="M0 105.89c0-58.481 47.408-105.89 105.89-105.89 58.481 0 105.89 47.408 105.889 105.89 0 58.481-47.408 105.89-105.889 105.889-58.481 0-105.89-47.408-105.89-105.889zM105.89 201.101c52.584 0 95.212-42.628 95.211-95.211 0-52.584-42.628-95.212-95.211-95.212-52.584 0-95.212 42.628-95.212 95.212 0 52.584 42.628 95.212 95.212 95.211z" data-fill-palette-color="tertiary" fill="#d1d7de" stroke="transparent"></path></g><g transform="matrix(1,0,0,1,58.88480206828963,58.88579069309754)"><svg viewBox="0 0 94.0094623514405 94.00748510182468" height="94.00748510182468" width="94.0094623514405"><g><svg xmlns="http://www.w3.org/2000/svg" xmlns:xlink="http://www.w3.org/1999/xlink" version="1.1" x="0" y="0" viewBox="8.463000000000005 8.462 83.07689216633612 83.0751448554909" enable-background="new 0 0 100 100" xml:space="preserve" height="94.00748510182468" width="94.0094623514405" class="icon-cg-0" data-fill-palette-color="accent" id="cg-0"><g fill="#d1d7de" data-fill-palette-color="accent"><path d="M50.897 8.462c2.89 0.681 4.762 2.613 6.197 5.069 1.704 2.915 2.813 6.069 3.692 9.311 0.169 0.621 0.166 0.624 0.718 0.309 2.892-1.647 5.871-3.091 9.104-3.958 2.101-0.564 4.201-0.745 6.307-0.064 2.41 0.779 3.698 2.516 4.173 4.937 0.441 2.246-0.021 4.396-0.698 6.521-0.876 2.752-2.148 5.324-3.575 7.825-0.332 0.582-0.33 0.58 0.301 0.751 3.243 0.88 6.39 2.001 9.313 3.692 1.621 0.938 3.026 2.11 4.035 3.706 1.441 2.281 1.433 4.575-0.015 6.849-1.005 1.578-2.396 2.743-4.003 3.674-2.908 1.684-6.04 2.803-9.266 3.685-0.806 0.22-0.721 0.132-0.326 0.83 1.405 2.478 2.666 5.022 3.53 7.745 0.489 1.54 0.897 3.1 0.878 4.734-0.009 0.768-0.086 1.534-0.275 2.281-0.756 2.983-2.831 4.48-5.805 4.83-2.464 0.29-4.749-0.404-7.013-1.212-2.352-0.84-4.566-1.976-6.728-3.217-0.488-0.28-0.491-0.275-0.64 0.282-0.876 3.277-2.011 6.451-3.716 9.401-0.921 1.593-2.074 2.975-3.634 3.979-2.301 1.48-4.618 1.488-6.927 0.017-1.804-1.149-3.029-2.802-4.031-4.651-1.487-2.746-2.514-5.667-3.328-8.671-0.024-0.089-0.058-0.176-0.071-0.266-0.047-0.316-0.19-0.321-0.439-0.175-1.086 0.639-2.199 1.23-3.332 1.783-2.467 1.204-5.005 2.21-7.726 2.668-1.679 0.282-3.344 0.175-4.942-0.442-2.216-0.855-3.362-2.568-3.798-4.838-0.432-2.249 0.038-4.396 0.714-6.519 0.877-2.752 2.155-5.322 3.581-7.822 0.315-0.553 0.312-0.551-0.308-0.718-3.244-0.878-6.39-2.001-9.313-3.689-1.776-1.026-3.272-2.334-4.302-4.134-0.371-0.648-0.572-1.355-0.766-2.066 0-0.615 0-1.23 0-1.845 0.193-0.712 0.395-1.418 0.765-2.066 1.029-1.801 2.525-3.11 4.301-4.135 2.951-1.703 6.124-2.838 9.403-3.708 0.531-0.141 0.536-0.147 0.267-0.616-1.019-1.774-1.978-3.58-2.732-5.482-1.049-2.648-2.025-5.316-1.704-8.255 0.306-2.797 1.686-4.934 4.54-5.746 2.026-0.577 4.036-0.389 6.043 0.15 3.142 0.844 6.044 2.234 8.862 3.822 0.799 0.45 0.787 0.458 1.032-0.442 0.863-3.168 1.969-6.241 3.64-9.085 1.432-2.437 3.298-4.356 6.174-5.027C49.667 8.462 50.282 8.462 50.897 8.462zM36.55 49.987c-0.084 1.611 0.107 3.235 0.083 4.864-0.006 0.414 0.14 0.749 0.436 1.069 2.223 2.405 4.537 4.717 6.94 6.942 0.319 0.295 0.653 0.443 1.064 0.451 1.013 0.02 2.026 0.051 3.039 0.088 2.227 0.082 4.454-0.054 6.681-0.084 0.443-0.006 0.807-0.141 1.154-0.462 2.415-2.235 4.738-4.56 6.97-6.978 0.26-0.282 0.389-0.583 0.396-0.945 0.02-1.029 0.052-2.057 0.088-3.086 0.08-2.243-0.049-4.485-0.083-6.727-0.007-0.43-0.148-0.777-0.455-1.109-2.234-2.416-4.559-4.738-6.977-6.971-0.295-0.272-0.608-0.399-0.988-0.406-0.998-0.018-1.996-0.048-2.994-0.085-2.273-0.083-4.546 0.051-6.819 0.083-0.415 0.006-0.747 0.151-1.066 0.446-2.403 2.225-4.72 4.535-6.941 6.941-0.295 0.319-0.451 0.651-0.445 1.066C36.656 46.714 36.468 48.338 36.55 49.987zM27.312 21.182c-0.553 0.024-1.165 0.028-1.776 0.128-2.305 0.374-3.602 1.556-4.133 3.819-0.386 1.646-0.271 3.296 0.045 4.934 0.561 2.905 1.69 5.608 2.987 8.249 0.172 0.35 0.387 0.354 0.699 0.28 3.694-0.87 7.434-1.462 11.208-1.838 0.289-0.029 0.386-0.172 0.413-0.445 0.089-0.9 0.179-1.801 0.301-2.698 0.391-2.859 0.864-5.703 1.543-8.51 0.084-0.348 0.002-0.525-0.321-0.68-1.234-0.59-2.469-1.176-3.75-1.659C32.22 21.894 29.872 21.194 27.312 21.182zM27.35 78.76c0.925 0.009 1.839-0.084 2.745-0.266 2.824-0.565 5.462-1.64 8.04-2.896 0.443-0.216 0.548-0.426 0.433-0.91-0.862-3.632-1.434-7.314-1.81-11.026-0.033-0.327-0.162-0.444-0.483-0.473-0.901-0.082-1.801-0.182-2.697-0.304-2.859-0.389-5.702-0.869-8.509-1.542-0.344-0.083-0.495 0.025-0.639 0.317-0.997 2.03-1.899 4.098-2.513 6.28-0.595 2.113-0.957 4.248-0.606 6.454 0.369 2.319 1.566 3.616 3.845 4.162C25.879 78.729 26.613 78.752 27.35 78.76zM72.638 78.765c0.536-0.021 1.164-0.025 1.789-0.128 2.292-0.379 3.597-1.578 4.12-3.834 0.381-1.647 0.266-3.296-0.053-4.934-0.559-2.874-1.664-5.552-2.956-8.164-0.173-0.351-0.345-0.449-0.742-0.354-3.675 0.884-7.403 1.459-11.161 1.841-0.308 0.031-0.417 0.162-0.445 0.461-0.085 0.901-0.179 1.801-0.302 2.698-0.392 2.859-0.864 5.704-1.544 8.51-0.088 0.365 0.03 0.515 0.34 0.667 1.229 0.601 2.467 1.182 3.749 1.662C67.729 78.052 70.061 78.753 72.638 78.765zM78.791 27.063c-0.035-0.343-0.067-0.974-0.17-1.593-0.38-2.281-1.573-3.555-3.825-4.068-1.645-0.375-3.298-0.264-4.938 0.053-2.813 0.545-5.438 1.62-7.996 2.878-0.613 0.302-0.612 0.295-0.459 0.962 0.831 3.623 1.413 7.287 1.787 10.985 0.033 0.325 0.156 0.443 0.478 0.479 1.387 0.156 2.772 0.322 4.154 0.515 2.371 0.332 4.724 0.774 7.053 1.331 0.339 0.081 0.501-0.009 0.637-0.314 0.338-0.757 0.727-1.492 1.054-2.254C77.758 33.257 78.717 30.414 78.791 27.063zM11.334 49.961c-0.022 0.571 0.141 1.099 0.348 1.614 0.677 1.688 1.918 2.917 3.334 3.977 2.64 1.977 5.648 3.214 8.746 4.26 0.253 0.085 0.386 0.015 0.521-0.204 1.986-3.224 4.212-6.277 6.595-9.217 0.248-0.306 0.274-0.499 0.013-0.821-2.383-2.939-4.613-5.99-6.596-9.216-0.166-0.271-0.335-0.287-0.604-0.196-2.127 0.722-4.211 1.544-6.181 2.634-1.663 0.92-3.223 1.98-4.481 3.428C12.093 47.297 11.409 48.494 11.334 49.961zM88.614 49.983c0.021-0.571-0.143-1.098-0.35-1.614-0.671-1.673-1.897-2.894-3.299-3.948-2.649-1.993-5.671-3.234-8.783-4.288-0.299-0.101-0.412 0.038-0.544 0.251-1.981 3.209-4.201 6.247-6.572 9.176-0.251 0.311-0.265 0.503-0.007 0.821 2.384 2.938 4.613 5.99 6.595 9.216 0.168 0.274 0.339 0.28 0.605 0.191 1.676-0.564 3.327-1.193 4.913-1.976 2.133-1.053 4.161-2.267 5.746-4.089C87.855 52.649 88.544 51.453 88.614 49.983zM49.967 88.593c0.154 0 0.308 0.007 0.461-0.002 0.091-0.005 0.18-0.035 0.27-0.055 1.855-0.415 3.208-1.587 4.367-2.993 2.287-2.774 3.626-6.039 4.759-9.404 0.086-0.257-0.036-0.36-0.22-0.474-3.222-1.989-6.275-4.214-9.215-6.597-0.309-0.251-0.502-0.268-0.822-0.009-2.927 2.374-5.964 4.596-9.178 6.569-0.31 0.19-0.317 0.374-0.215 0.675 0.568 1.691 1.206 3.356 2 4.953 1.045 2.102 2.25 4.1 4.048 5.664C47.298 87.854 48.494 88.544 49.967 88.593zM49.987 11.336c-0.571-0.022-1.099 0.14-1.614 0.346-1.689 0.676-2.916 1.919-3.977 3.335-1.978 2.64-3.213 5.648-4.26 8.746-0.085 0.253-0.016 0.386 0.204 0.522 3.223 1.987 6.277 4.212 9.217 6.595 0.306 0.248 0.499 0.275 0.821 0.013 2.936-2.387 5.991-4.611 9.215-6.596 0.27-0.166 0.288-0.334 0.197-0.603-0.565-1.676-1.193-3.327-1.976-4.913-1.052-2.134-2.267-4.161-4.087-5.748C52.653 12.095 51.456 11.406 49.987 11.336zM36.568 38.098c0.025-0.716 0.024-0.72-0.56-0.646-0.426 0.054-0.85 0.12-1.275 0.181-3.1 0.452-6.159 1.092-9.174 1.948-0.294 0.083-0.357 0.178-0.197 0.469 1.76 3.196 3.813 6.198 6.016 9.101 0.179 0.235 0.305 0.249 0.494 0.019 1.316-1.603 2.689-3.156 4.094-4.682 0.125-0.136 0.228-0.281 0.232-0.485C36.24 41.994 36.41 39.992 36.568 38.098zM36.567 61.839c-0.157-1.865-0.327-3.882-0.37-5.907-0.005-0.224-0.136-0.371-0.27-0.516-1.386-1.501-2.734-3.035-4.033-4.613-0.193-0.235-0.323-0.263-0.525 0.004-2.193 2.892-4.234 5.882-5.994 9.061-0.196 0.354-0.073 0.423 0.241 0.512 3.414 0.973 6.887 1.654 10.404 2.118C36.593 62.574 36.594 62.567 36.567 61.839zM63.379 61.958c-0.009 0.107-0.008 0.216-0.029 0.321-0.056 0.274 0.064 0.307 0.306 0.273 3.605-0.502 7.176-1.167 10.678-2.172 0.32-0.092 0.429-0.167 0.236-0.514-1.762-3.179-3.802-6.172-5.997-9.063-0.173-0.228-0.299-0.266-0.494-0.029-1.329 1.613-2.71 3.18-4.124 4.719-0.116 0.127-0.2 0.264-0.204 0.449C63.705 57.952 63.539 59.955 63.379 61.958zM61.806 36.566c0.761 0.035 0.762 0.035 0.692-0.54-0.026-0.213-0.061-0.425-0.09-0.638-0.454-3.318-1.127-6.59-2.037-9.815-0.097-0.343-0.215-0.353-0.503-0.194-3.182 1.757-6.173 3.799-9.064 5.994-0.223 0.17-0.276 0.296-0.034 0.494 1.616 1.325 3.179 2.712 4.718 4.125 0.14 0.129 0.294 0.204 0.494 0.209C57.993 36.243 59.996 36.414 61.806 36.566zM38.008 36.568c0.309 0.048 0.652-0.069 1.005-0.089 1.654-0.095 3.304-0.259 4.962-0.278 0.223-0.002 0.374-0.113 0.524-0.249 1.52-1.389 3.059-2.756 4.652-4.06 0.244-0.2 0.242-0.329-0.015-0.524-2.892-2.194-5.884-4.236-9.065-5.993-0.308-0.17-0.414-0.119-0.495 0.209-0.254 1.028-0.546 2.046-0.793 3.075-0.604 2.523-1.023 5.08-1.391 7.647-0.038 0.263 0.041 0.342 0.292 0.29C37.773 36.577 37.867 36.579 38.008 36.568zM63.384 38.157c0.152 1.799 0.322 3.802 0.363 5.812 0.005 0.241 0.125 0.405 0.272 0.563 1.387 1.501 2.737 3.034 4.034 4.614 0.194 0.236 0.323 0.261 0.524-0.005 2.183-2.881 4.217-5.859 5.972-9.024 0.182-0.329 0.16-0.444-0.224-0.553-3.416-0.969-6.89-1.65-10.408-2.114C63.348 37.375 63.347 37.38 63.384 38.157zM38.01 63.38c-0.107-0.008-0.217-0.006-0.321-0.027-0.244-0.05-0.336 0.015-0.298 0.285 0.51 3.619 1.174 7.205 2.181 10.723 0.109 0.382 0.241 0.356 0.534 0.194 3.166-1.752 6.145-3.786 9.025-5.971 0.25-0.19 0.275-0.317 0.024-0.523-1.593-1.305-3.135-2.668-4.649-4.064-0.148-0.137-0.304-0.243-0.526-0.248C41.985 63.706 39.997 63.542 38.01 63.38zM61.783 63.386c-1.791 0.151-3.809 0.32-5.835 0.364-0.243 0.005-0.399 0.146-0.555 0.291-1.489 1.377-3.011 2.718-4.58 4.003-0.264 0.216-0.254 0.347 0.02 0.554 2.869 2.175 5.836 4.196 8.986 5.947 0.361 0.201 0.463 0.142 0.573-0.247 0.967-3.417 1.65-6.89 2.11-10.409C62.573 63.346 62.572 63.346 61.783 63.386zM36.097 45.116c-1.401 1.565-2.671 3.079-3.896 4.632-0.184 0.234-0.05 0.396 0.089 0.566 0.819 0.995 1.633 1.994 2.46 2.983 0.415 0.496 0.851 0.974 1.347 1.539C36.097 51.551 36.097 48.396 36.097 45.116zM54.727 36.088c-0.017-0.057-0.016-0.094-0.034-0.11-1.44-1.29-2.923-2.53-4.436-3.734-0.234-0.186-0.402-0.138-0.605 0.031-1.037 0.864-2.083 1.717-3.119 2.583-0.453 0.379-0.889 0.778-1.405 1.231C48.394 36.088 51.555 36.088 54.727 36.088zM63.868 45.122c0 3.276 0 6.439 0 9.686 1.381-1.539 2.653-3.056 3.88-4.611 0.166-0.21 0.068-0.363-0.068-0.528-0.663-0.808-1.315-1.625-1.986-2.426C65.117 46.552 64.521 45.878 63.868 45.122zM45.221 63.862c0.017 0.058 0.017 0.095 0.035 0.111 1.44 1.29 2.923 2.529 4.436 3.733 0.234 0.186 0.399 0.136 0.603-0.034 1.037-0.864 2.084-1.716 3.121-2.581 0.453-0.378 0.889-0.778 1.402-1.229C51.553 63.862 48.392 63.862 45.221 63.862zM43.654 36.726c-0.198 0-0.274-0.006-0.35 0.001-1.772 0.152-3.543 0.305-5.315 0.46-0.692 0.061-0.745 0.136-0.811 0.878-0.109 1.237-0.243 2.471-0.349 3.708-0.051 0.593-0.061 1.19-0.094 1.876C39.012 41.256 41.272 39.006 43.654 36.726zM36.732 56.301c0 0.223-0.008 0.33 0.001 0.435 0.148 1.695 0.305 3.389 0.444 5.085 0.068 0.834 0.125 0.884 0.98 0.953 1.207 0.098 2.411 0.234 3.617 0.338 0.593 0.051 1.189 0.067 1.88 0.104C41.255 60.936 39.005 58.676 36.732 56.301zM56.291 36.726c2.391 2.279 4.649 4.543 6.924 6.921 0-0.207 0.007-0.325-0.001-0.441-0.056-0.764-0.103-1.53-0.175-2.293-0.102-1.083-0.23-2.164-0.332-3.247-0.026-0.28-0.144-0.391-0.423-0.426-1.506-0.189-3.019-0.31-4.531-0.427C57.302 36.778 56.849 36.759 56.291 36.726zM56.298 63.217c0.207 0 0.323 0.007 0.438-0.001 0.764-0.056 1.529-0.107 2.293-0.175 1.008-0.089 2.014-0.205 3.022-0.281 0.458-0.035 0.667-0.234 0.704-0.695 0.113-1.39 0.255-2.778 0.375-4.168 0.043-0.498 0.055-0.999 0.086-1.597C60.942 58.678 58.684 60.941 56.298 63.217z" fill="#d1d7de" data-fill-palette-color="accent"></path><path d="M41.64 49.975c-0.111-4.523 3.803-8.381 8.38-8.358 4.495 0.022 8.336 3.835 8.312 8.403-0.023 4.506-3.842 8.336-8.404 8.312C45.419 58.309 41.532 54.493 41.64 49.975z" fill="#d1d7de" data-fill-palette-color="accent"></path></g></svg></g></svg></g></svg></g></svg></g></svg></g><defs></defs></svg><rect width="395.52" height="130.92444441542835" fill="none" stroke="none" visibility="hidden"></rect></g></svg></g></svg>